<svg width="271" height="152" viewBox="0 0 271 152" fill="none" xmlns="http://www.w3.org/2000/svg">
<path fill-rule="evenodd" clip-rule="evenodd" d="M126.427 125.725C129.065 127.088 132.01 127.835 135 127.835C137.99 127.835 140.935 127.132 143.573 125.725L176.108 108.666C182.219 105.457 186 99.2138 186 92.3112V60.5241C186 53.6216 182.219 47.3784 176.108 44.169L143.573 27.1103C140.935 25.7474 137.99 25 135 25C132.01 25 129.065 25.7474 126.427 27.1103L93.8922 44.169C87.781 47.3784 84 53.6216 84 60.5241V92.3112C84 99.2138 87.781 105.457 93.8922 108.666L126.427 125.725ZM141.947 30.2322C137.594 27.946 132.406 27.946 128.054 30.2322L95.5193 47.2909C90.5952 49.8848 87.5176 54.9848 87.5176 60.5245V92.3115C87.5176 97.8512 90.5952 102.951 95.5193 105.545L128.054 122.604C132.406 124.89 137.594 124.89 141.947 122.604L174.481 105.545C179.406 102.951 182.483 97.8512 182.483 92.3115V60.5245C182.483 54.9848 179.406 49.8848 174.481 47.2909L141.947 30.2322Z" fill="#565656"/>
<path d="M117.766 49.1357L137.815 59.5994C139.353 60.3908 141.947 59.9072 142.387 58.6762L147.839 44.1676C147.927 43.9038 147.927 43.64 147.795 43.4201C147.663 43.1563 147.443 42.9805 147.091 42.8046C146.784 42.6288 146.344 42.4969 145.904 42.4529C145.465 42.4089 144.981 42.4089 144.541 42.4529L119.041 46.4977C118.558 46.5857 118.118 46.7176 117.766 46.8934C117.415 47.0693 117.151 47.3331 117.019 47.5969C116.887 47.8607 116.887 48.1244 117.019 48.3882C117.151 48.696 117.415 48.9158 117.766 49.1357Z" fill="#565656"/>
<path d="M166.171 83.3435C167.403 83.0797 168.414 83.2995 169.117 84.003C169.821 84.6625 170.172 85.7616 170.172 87.3444C170.172 89.5426 169.381 91.697 167.886 93.7194C166.391 95.7418 164.193 97.5444 161.335 99.1271L151.135 104.843C150.52 105.194 149.992 104.887 149.992 104.183L150.168 81.6289C150.168 80.8814 150.696 80.0021 151.311 79.6504L160.896 74.2866C163.578 72.7918 165.6 72.2202 167.051 72.6159C168.502 72.9676 169.205 74.1547 169.161 76.1771C169.161 77.4082 168.897 78.6392 168.37 79.8702C167.842 81.1452 167.139 82.2883 166.171 83.3435ZM155.576 81.6728C155.356 81.8047 155.18 82.0685 155.18 82.3323L155.136 87.3883C155.136 87.6521 155.312 87.7401 155.532 87.6082L160.192 85.0142C161.467 84.3108 162.39 83.5194 163.05 82.6401C163.709 81.7608 164.017 80.8375 164.061 79.8702C164.061 78.903 163.753 78.3314 163.094 78.1995C162.434 78.0676 161.511 78.3314 160.236 79.0349L155.576 81.6728ZM160.984 94.9504C162.303 94.203 163.314 93.3676 164.017 92.4883C164.721 91.609 165.072 90.6418 165.072 89.5866C165.072 87.5202 163.753 87.2125 161.028 88.7073L155.488 91.8289C155.268 91.9608 155.092 92.2245 155.092 92.4883L155.048 97.8521C155.048 98.1159 155.224 98.2039 155.444 98.072L160.984 94.9504Z" fill="#565656"/>
<path d="M103.827 83.3435C102.596 83.0797 101.585 83.2995 100.881 84.003C100.178 84.6625 99.8262 85.7616 99.8262 87.3444C99.8262 89.5426 100.618 91.697 102.112 93.7194C103.607 95.7418 105.805 97.5444 108.663 99.1271L118.863 104.843C119.479 105.194 120.006 104.887 120.006 104.183L119.83 81.6289C119.83 80.8814 119.303 80.0021 118.687 79.6504L109.103 74.2866C106.421 72.7918 104.399 72.2202 102.948 72.6159C101.497 72.9676 100.793 74.1547 100.837 76.1771C100.837 77.4082 101.101 78.6392 101.629 79.8702C102.156 81.1452 102.86 82.2883 103.827 83.3435ZM114.423 81.6728C114.643 81.8047 114.818 82.0685 114.818 82.3323L114.862 87.3883C114.862 87.6521 114.687 87.7401 114.467 87.6082L109.806 85.0142C108.531 84.3108 107.608 83.5194 106.949 82.6401C106.289 81.7608 105.981 80.8375 105.937 79.8702C105.937 78.903 106.245 78.3314 106.905 78.1995C107.564 78.0676 108.487 78.3314 109.762 79.0349L114.423 81.6728ZM109.015 94.9504C107.696 94.203 106.685 93.3676 105.981 92.4883C105.278 91.609 104.926 90.6418 104.926 89.5866C104.926 87.5202 106.245 87.2125 108.971 88.7073L114.511 91.8289C114.73 91.9608 114.906 92.2245 114.906 92.4883L114.95 97.8521C114.95 98.1159 114.774 98.2039 114.555 98.072L109.015 94.9504Z" fill="#565656"/>
</svg>
